<svg viewBox="0 0 3014 2512" xmlns="http://www.w3.org/2000/svg"><path d="m0 2036v-1560q0-74 53.5-127t127.5-53h240v360h1080v-360h240q74 0 126.5 53t52.5 127v1560q0 74-52.5 127t-126.5 53h-240v-360h-1080v360h-240q-74 0-127.5-53t-53.5-127zm151-90v120h120v-120zm0-181h120v-120h-120zm0-299h120v-120h-120zm0-301h120v-120h-120zm0-299h120v-120h-120zm0-301h120v-120h-120zm270 991h1080v-600h-1080zm1228 390v120h120v-120zm0-181h120v-120h-120zm0-299h120v-120h-120zm0-301h120v-120h-120zm0-299h120v-120h-120zm0-301h120v-120h-120z"/></svg>